<?xml version="1.0" standalone="no"?>
<!DOCTYPE svg PUBLIC "-//W3C//DTD SVG 20010904//EN"
 "http://www.w3.org/TR/2001/REC-SVG-20010904/DTD/svg10.dtd">
<svg version="1.0" xmlns="http://www.w3.org/2000/svg"
 width="93.000000pt" height="93.000000pt" viewBox="0 0 93.000000 93.000000"
 preserveAspectRatio="xMidYMid meet">
<metadata>
Created by potrace 1.11, written by Peter Selinger 2001-2013
</metadata>
<g transform="translate(0.000000,93.000000) scale(0.100000,-0.100000)"
fill="#000000" stroke="none">
<path d="M247 503 c-253 -470 -241 -447 -230 -441 23 11 65 29 131 55 l74 28
116 217 c65 119 120 219 123 223 4 3 30 -38 58 -92 28 -54 54 -104 59 -111 7
-11 22 -9 76 10 36 12 66 27 66 32 0 8 -199 380 -241 449 l-16 28 -216 -398z"/>
<path d="M447 394 c-17 -33 -35 -44 -68 -44 -24 0 -24 -12 1 -35 14 -12 20
-31 20 -58 0 -34 2 -38 18 -31 22 10 72 10 96 -1 17 -7 18 -5 12 27 -5 30 -2
41 19 66 l25 29 -38 7 c-30 4 -41 12 -54 38 l-15 33 -16 -31z"/>
<path d="M681 349 c-35 -10 -65 -20 -68 -23 -2 -2 17 -44 43 -94 l49 -89 105
-40 c58 -23 106 -40 108 -39 4 4 -163 306 -168 305 -3 -1 -34 -10 -69 -20z"/>
</g>
</svg>
